<svg width="44" height="44" viewBox="0 0 44 44" fill="none" xmlns="http://www.w3.org/2000/svg">
<rect x="0.84082" y="0.5" width="43" height="43" rx="21.5" fill="#2091F9"/>
<path d="M18.4354 23.2387L21.0666 20.6075L15.3114 14.8616C14.8652 14.4153 14.0935 14.5362 13.8145 15.1127C13.1544 16.498 13.3961 18.1994 14.5397 19.3523L18.4354 23.2387ZM24.7392 21.5559C26.1617 22.216 28.1607 21.7511 29.639 20.2728C31.4148 18.497 31.7588 15.9494 30.3921 14.5827C29.0346 13.2253 26.4871 13.56 24.702 15.3358C23.2237 16.8141 22.7588 18.8131 23.4189 20.2356L14.9953 28.6592C14.8215 28.833 14.7238 29.0688 14.7238 29.3147C14.7238 29.5605 14.8215 29.7963 14.9953 29.9702C15.1692 30.144 15.405 30.2417 15.6508 30.2417C15.8967 30.2417 16.1324 30.144 16.3063 29.9702L22.0615 24.2336L27.8074 29.9795C27.8935 30.0655 27.9956 30.1338 28.1081 30.1804C28.2206 30.227 28.3411 30.251 28.4629 30.251C28.5846 30.251 28.7051 30.227 28.8176 30.1804C28.9301 30.1338 29.0323 30.0655 29.1183 29.9795C29.2044 29.8934 29.2727 29.7912 29.3193 29.6787C29.3659 29.5663 29.3898 29.4457 29.3898 29.324C29.3898 29.2022 29.3659 29.0817 29.3193 28.9692C29.2727 28.8568 29.2044 28.7546 29.1183 28.6685L23.3724 22.9226L24.7392 21.5559Z" fill="white"/>
</svg>
