<svg width="27" height="22" viewBox="0 0 27 22" fill="none" xmlns="http://www.w3.org/2000/svg">
<path d="M25.3125 0.859375H0.9375C0.418945 0.859375 0 1.27832 0 1.79688V20.5469C0 21.0654 0.418945 21.4844 0.9375 21.4844H25.3125C25.8311 21.4844 26.25 21.0654 26.25 20.5469V1.79688C26.25 1.27832 25.8311 0.859375 25.3125 0.859375ZM24.1406 4.10547V19.375H2.10938V4.10547L1.30078 3.47559L2.45215 1.99609L3.70605 2.97168H22.5469L23.8008 1.99609L24.9521 3.47559L24.1406 4.10547ZM22.5469 2.96875L13.125 10.293L3.70312 2.96875L2.44922 1.99316L1.29785 3.47266L2.10645 4.10254L12.1143 11.8838C12.4021 12.1074 12.7561 12.2288 13.1206 12.2288C13.4851 12.2288 13.8391 12.1074 14.127 11.8838L24.1406 4.10547L24.9492 3.47559L23.7979 1.99609L22.5469 2.96875Z" fill="#2091F9"/>
</svg>
