<svg width="27" height="33" viewBox="0 0 27 33" fill="none" xmlns="http://www.w3.org/2000/svg">
<g clip-path="url(#clip0_3_594)">
<path d="M13.4998 19.3385C16.9927 19.3385 19.8332 16.498 19.8332 13.0052C19.8332 9.51237 16.9927 6.67188 13.4998 6.67188C10.007 6.67188 7.1665 9.51237 7.1665 13.0052C7.1665 16.498 10.007 19.3385 13.4998 19.3385ZM13.4998 9.83854C15.2463 9.83854 16.6665 11.2588 16.6665 13.0052C16.6665 14.7516 15.2463 16.1719 13.4998 16.1719C11.7534 16.1719 10.3332 14.7516 10.3332 13.0052C10.3332 11.2588 11.7534 9.83854 13.4998 9.83854Z" fill="#2091F9"/>
<path d="M12.2487 31.7108C12.5167 31.9022 12.8378 32.005 13.1671 32.005C13.4963 32.005 13.8174 31.9022 14.0854 31.7108C14.5667 31.3704 25.8796 23.202 25.8337 13.0053C25.8337 6.02121 20.1511 0.338623 13.1671 0.338623C6.18297 0.338623 0.500384 6.02121 0.500384 12.9974C0.454467 23.202 11.7674 31.3704 12.2487 31.7108ZM13.1671 3.50529C18.4063 3.50529 22.667 7.76604 22.667 13.0132C22.7003 20.04 15.7194 26.3496 13.1671 28.419C10.6163 26.348 3.6338 20.0369 3.66705 13.0053C3.66705 7.76604 7.9278 3.50529 13.1671 3.50529Z" fill="#2091F9"/>
</g>
<defs>
<clipPath id="clip0_3_594">
<rect width="26" height="32" fill="white" transform="translate(0.5 0.171875)"/>
</clipPath>
</defs>
</svg>
