<svg width="34" height="29" viewBox="0 0 34 29" fill="none" xmlns="http://www.w3.org/2000/svg">
<path d="M33.665 4.1787C32.4402 4.70704 31.1073 5.08729 29.7344 5.23539C31.1598 4.38858 32.2272 3.05077 32.7364 1.47295C31.3988 2.26862 29.9336 2.82656 28.4056 3.12202C27.7669 2.43928 26.9945 1.89538 26.1365 1.52421C25.2785 1.15304 24.3532 0.962551 23.4183 0.964616C19.6359 0.964616 16.5939 4.03061 16.5939 7.79305C16.5939 8.32139 16.6579 8.84973 16.762 9.35806C11.0983 9.06187 6.04707 6.35611 2.68889 2.21343C2.07699 3.25857 1.75634 4.44858 1.76028 5.65966C1.76028 8.0292 2.96507 10.1186 4.80226 11.3474C3.71957 11.3047 2.66224 11.0071 1.71626 10.4788V10.5628C1.71626 13.881 4.06178 16.6308 7.18781 17.2632C6.60086 17.4157 5.99706 17.4936 5.39064 17.4953C4.94635 17.4953 4.52608 17.4513 4.1018 17.3913C4.96636 20.097 7.484 22.0623 10.4819 22.1263C8.13642 23.9635 5.19851 25.0442 2.00845 25.0442C1.43607 25.0442 0.907731 25.0242 0.359375 24.9602C3.38534 26.9014 6.97567 28.0222 10.8422 28.0222C23.3943 28.0222 30.2628 17.6234 30.2628 8.59757C30.2628 8.30138 30.2628 8.00518 30.2428 7.70899C31.5716 6.73636 32.7364 5.53158 33.665 4.1787Z" fill="#2091F9"/>
</svg>
